<?xml version="1.0" standalone="no"?>
<!DOCTYPE svg PUBLIC "-//W3C//DTD SVG 20010904//EN"
 "http://www.w3.org/TR/2001/REC-SVG-20010904/DTD/svg10.dtd">
<svg version="1.0" xmlns="http://www.w3.org/2000/svg"
 width="169.000000pt" height="169.000000pt" viewBox="0 0 169.000000 169.000000"
 preserveAspectRatio="xMidYMid meet">
<metadata>
Created by potrace 1.14, written by Peter Selinger 2001-2017
</metadata>
<g transform="translate(0.000000,169.000000) scale(0.100000,-0.100000)"
fill="#000000" stroke="none">
<path d="M900 1454 c0 -7 -7 -15 -16 -18 -8 -3 -13 -2 -10 2 3 5 -1 9 -8 9 -8
0 -12 -6 -9 -13 2 -6 -1 -15 -8 -20 -8 -4 -10 -3 -5 4 4 7 2 12 -3 12 -6 0
-11 -7 -11 -16 0 -13 -3 -14 -14 -5 -15 13 -32 -1 -22 -18 4 -5 -4 -7 -16 -3
-14 3 -19 2 -14 -6 4 -7 2 -12 -4 -12 -6 0 -8 -5 -4 -12 4 -6 3 -8 -4 -4 -10
6 -26 -10 -27 -26 0 -3 -4 -10 -9 -15 -5 -5 -6 -3 -2 5 4 6 3 12 -3 12 -5 0
-13 -9 -16 -20 -4 -11 -11 -17 -17 -14 -8 5 -9 1 -5 -10 4 -10 3 -15 -3 -11
-6 3 -10 1 -10 -5 0 -6 -4 -9 -8 -6 -5 3 -15 -5 -23 -16 -8 -12 -23 -31 -35
-42 -12 -12 -20 -29 -18 -39 1 -9 -2 -15 -7 -11 -5 3 -9 0 -9 -6 0 -6 -4 -8
-10 -5 -5 3 -10 3 -11 -2 -3 -29 -9 -47 -21 -54 -10 -7 -10 -9 2 -9 9 -1 5 -6
-10 -15 -14 -8 -20 -14 -13 -15 7 0 1 -12 -12 -26 -20 -21 -23 -30 -13 -41 6
-8 7 -13 2 -12 -21 4 -28 -2 -14 -11 12 -8 12 -10 1 -10 -8 0 -20 -8 -28 -17
-8 -10 -11 -12 -7 -4 5 10 3 12 -5 7 -9 -6 -9 -11 0 -22 8 -10 8 -14 0 -14 -6
0 -11 -7 -11 -15 0 -8 -5 -15 -10 -15 -7 0 -7 -6 0 -20 10 -18 7 -24 -12 -21
-5 0 -8 -3 -8 -8 0 -5 -3 -18 -6 -28 -5 -15 -4 -15 5 -3 6 8 11 12 11 8 0 -13
-23 -58 -31 -58 -12 0 -19 -29 -7 -36 7 -5 8 -2 3 6 -6 9 -4 11 4 6 9 -6 8
-12 -4 -26 -12 -14 -13 -20 -4 -26 8 -5 10 -3 4 6 -6 9 -4 11 4 6 9 -6 8 -12
-4 -26 -12 -14 -13 -20 -4 -26 8 -5 10 -3 4 6 -6 9 -4 11 4 6 9 -6 8 -12 -4
-26 -12 -14 -13 -20 -4 -26 8 -5 10 -3 4 6 -5 8 -4 11 3 6 6 -4 9 -13 6 -21
-4 -8 -11 -12 -18 -8 -6 4 -6 1 2 -9 10 -13 10 -17 -5 -22 -15 -6 -15 -8 -3
-16 13 -8 12 -10 -3 -10 -10 0 -15 -4 -12 -10 3 -5 0 -10 -7 -10 -9 0 -9 -3 2
-10 13 -8 13 -10 -2 -10 -11 0 -15 -5 -12 -14 3 -8 0 -17 -7 -22 -8 -5 -10 -3
-4 6 5 8 4 11 -3 6 -5 -3 -8 -20 -5 -37 2 -17 -1 -37 -9 -47 -11 -13 -11 -15
2 -8 8 4 6 0 -5 -9 -11 -9 -19 -18 -17 -20 1 -3 -1 -5 -5 -6 -5 0 -14 -5 -20
-11 -9 -7 -13 -7 -13 1 0 8 -4 8 -14 -1 -8 -7 -11 -17 -8 -23 3 -5 -3 -3 -13
5 -17 14 -18 13 -12 -2 4 -12 2 -15 -9 -11 -16 6 -18 -1 -4 -26 6 -13 17 -17
35 -14 24 5 35 -13 18 -31 -13 -12 -11 -33 3 -33 8 0 14 6 14 13 0 8 6 11 14
8 8 -3 21 5 30 18 11 15 16 18 17 8 0 -10 3 -8 9 5 l9 20 0 -20 c1 -17 3 -17
11 -5 8 13 10 12 10 -4 0 -12 5 -16 15 -13 8 4 17 1 21 -5 5 -7 2 -8 -6 -3 -9
5 -11 4 -6 -4 4 -6 12 -9 17 -5 6 3 17 -2 25 -12 9 -11 13 -13 9 -6 -9 17 3
15 22 -3 8 -8 19 -12 25 -9 6 4 14 0 19 -7 6 -10 9 -11 9 -1 0 6 8 12 18 12
14 0 15 -2 2 -10 -9 -6 -10 -10 -3 -10 6 0 14 4 17 8 6 10 62 9 72 -1 4 -4 12
-7 18 -7 6 0 4 4 -4 10 -10 6 -6 9 18 8 20 -1 29 -5 25 -12 -4 -6 1 -5 10 3 9
7 17 10 17 6 0 -4 6 -2 14 4 10 9 16 9 21 1 4 -6 16 -8 27 -4 16 5 19 3 12 -7
-6 -11 -5 -12 7 -3 8 6 46 9 84 8 49 -2 77 2 94 13 18 11 22 12 16 2 -3 -8 1
-5 9 5 15 18 21 15 17 -8 -1 -5 4 -5 11 1 19 14 50 24 43 14 -3 -5 0 -13 6
-17 8 -4 9 -3 5 4 -4 7 -2 12 4 12 6 0 8 5 4 12 -5 8 0 7 11 -2 10 -8 16 -10
13 -5 -3 6 0 16 8 23 9 8 14 9 14 2 0 -6 5 -8 10 -5 6 4 8 11 5 16 -4 5 2 6
11 2 14 -5 16 -3 11 10 -5 15 -3 16 13 7 13 -7 21 -7 25 0 4 6 11 8 16 5 5 -4
9 -1 9 4 0 6 -5 11 -12 11 -6 0 -9 3 -6 6 4 3 16 0 28 -6 14 -8 20 -8 16 -1
-7 11 29 53 38 44 3 -4 6 -1 6 6 0 7 5 9 12 5 7 -4 8 -3 4 4 -3 6 3 16 14 22
11 6 20 18 20 26 0 8 4 13 9 9 5 -3 13 0 17 6 4 7 3 9 -3 6 -6 -4 -14 0 -17 9
-4 10 -2 13 7 9 6 -4 3 1 -8 10 -11 9 -32 21 -47 27 -16 5 -26 13 -23 17 2 4
-10 7 -28 7 -24 -1 -31 3 -29 14 2 8 0 12 -3 8 -4 -4 -15 -3 -25 2 -10 5 -20
6 -24 3 -10 -10 -56 -12 -50 -2 2 4 -15 10 -38 13 -60 8 -178 4 -178 -7 0 -4
-4 -5 -10 -2 -5 3 -10 2 -10 -3 0 -5 -20 -8 -45 -7 -30 1 -45 -3 -45 -11 0 -7
-10 -11 -25 -10 -13 2 -22 0 -20 -4 3 -4 -22 -13 -55 -20 -33 -7 -60 -15 -60
-19 0 -3 -19 -7 -43 -9 -23 -1 -44 -7 -45 -12 -2 -6 -8 -8 -12 -5 -5 3 -18 0
-29 -7 -36 -22 -32 -2 9 41 22 23 44 39 49 36 5 -3 16 3 23 13 10 14 28 19 73
21 33 1 86 11 117 22 31 10 78 21 105 25 26 3 50 8 53 12 3 4 11 7 18 8 38 3
43 5 37 14 -4 7 3 9 19 6 19 -3 29 1 36 15 6 10 20 19 31 19 13 0 18 4 13 13
-4 6 -4 9 1 5 4 -4 15 -2 23 5 13 10 14 9 8 -1 -7 -11 -4 -11 12 -1 12 7 18
17 15 22 -3 4 1 8 8 6 32 -4 49 2 49 17 0 14 3 14 16 4 12 -11 15 -11 12 1 -2
8 3 13 10 11 8 -1 11 2 7 8 -3 5 -1 10 5 10 6 0 8 6 4 13 -5 9 -4 9 7 -1 11
-10 17 -8 34 11 11 13 18 18 15 12 -3 -6 3 -2 12 8 10 11 15 23 12 28 -3 5 3
6 12 2 13 -5 15 -3 9 8 -7 12 -6 12 7 1 13 -10 18 -10 24 -1 5 8 3 9 -6 4 -9
-5 -11 -4 -6 3 4 7 13 12 21 12 17 0 57 49 49 61 -3 5 3 6 12 2 12 -4 15 -3
10 5 -4 7 -1 12 8 12 18 0 58 49 50 61 -3 5 0 8 8 7 8 -2 12 4 10 17 -2 11 0
17 4 12 4 -4 14 5 21 20 7 16 11 19 8 9 -5 -16 -3 -17 10 -6 8 7 13 16 10 20
-3 4 2 10 10 14 8 3 15 12 15 20 0 7 7 26 14 42 8 15 13 31 10 36 -3 4 0 8 6
8 7 0 10 6 7 14 -3 8 1 17 9 20 8 3 14 15 14 26 0 14 -4 19 -12 14 -10 -6 -10
-4 0 7 6 7 12 21 12 31 0 15 -12 17 -122 16 -68 -1 -125 -5 -128 -10 -3 -4
-24 -9 -47 -12 -23 -2 -47 -7 -55 -12 -7 -5 -22 -10 -33 -11 -11 -2 -24 -8
-29 -13 -4 -4 -15 -6 -24 -3 -11 5 -13 2 -7 -6 6 -10 3 -11 -15 -1 -12 7 -20
8 -17 2 4 -5 -1 -18 -9 -28 -9 -10 -13 -13 -9 -7 4 8 -6 6 -24 -4 -16 -10 -27
-22 -24 -27 4 -5 -1 -6 -12 -2 -12 4 -22 0 -32 -14 -8 -12 -21 -19 -29 -16 -8
3 -13 2 -12 -2 3 -9 -71 -82 -83 -82 -16 0 -10 30 11 52 11 12 20 28 20 35 0
8 5 11 11 7 8 -5 8 -1 0 14 -15 29 -14 35 6 28 10 -4 14 -4 10 0 -4 4 -2 13 4
20 7 8 7 14 0 19 -7 4 -7 11 2 19 6 8 15 12 18 10 3 -2 6 3 6 11 0 8 -5 11
-10 8 -6 -4 -7 -1 -2 8 12 18 13 79 3 107 -5 14 -4 21 1 18 11 -7 8 21 -4 31
-4 4 -5 2 0 -6 6 -10 4 -12 -4 -6 -9 5 -10 10 -2 18 6 6 11 15 11 20 0 11 -71
6 -88 -7 -10 -7 -16 -5 -23 5 -5 8 -9 9 -9 3z m-400 -438 c0 -2 -8 -10 -17
-17 -16 -13 -17 -12 -4 4 13 16 21 21 21 13z m980 -80 c0 -2 -8 -10 -17 -17
-16 -13 -17 -12 -4 4 13 16 21 21 21 13z m-948 -391 c-11 -17 -102 -98 -102
-91 0 4 -7 1 -15 -8 -8 -8 -15 -18 -15 -22 0 -9 -41 -44 -53 -44 -5 0 -6 8 -2
18 3 9 7 21 8 27 1 5 8 16 15 23 7 8 10 17 7 22 -3 4 2 11 11 14 8 3 13 10 9
15 -3 5 4 12 15 16 11 3 20 10 20 15 0 4 11 7 25 5 20 -2 23 1 14 11 -8 10 -6
12 10 9 12 -2 21 1 21 6 0 6 5 7 10 4 6 -3 10 0 10 7 0 10 3 9 10 -2 5 -8 6
-19 2 -25z"/>
</g>
</svg>
