<?xml version="1.0" standalone="no"?>
<!DOCTYPE svg PUBLIC "-//W3C//DTD SVG 20010904//EN"
 "http://www.w3.org/TR/2001/REC-SVG-20010904/DTD/svg10.dtd">
<svg version="1.0" xmlns="http://www.w3.org/2000/svg"
 width="752.000000pt" height="752.000000pt" viewBox="0 0 752.000000 752.000000"
 preserveAspectRatio="xMidYMid meet">
<metadata>
Created by potrace 1.14, written by Peter Selinger 2001-2017
</metadata>
<g transform="translate(0.000000,752.000000) scale(0.100000,-0.100000)"
fill="#000000" stroke="none">
<path d="M3788 6916 c-1 -2 -88 -6 -193 -10 -104 -3 -201 -8 -215 -10 -14 -2
-54 -7 -90 -11 -77 -7 -110 -12 -295 -42 -25 -4 -167 -34 -227 -49 -10 -2 -27
-6 -39 -9 -11 -2 -29 -7 -39 -10 -10 -3 -27 -7 -37 -9 -60 -12 -373 -119 -458
-156 -38 -17 -100 -43 -105 -45 -3 0 -36 -16 -75 -35 -38 -18 -73 -33 -77 -32
-5 1 -8 -2 -8 -8 0 -5 -9 -10 -20 -10 -11 0 -20 -3 -20 -7 0 -5 -19 -17 -43
-28 -68 -31 -336 -193 -357 -215 -3 -3 -18 -14 -35 -24 -16 -11 -34 -23 -40
-28 -5 -5 -35 -27 -65 -49 -339 -251 -654 -612 -858 -984 -61 -111 -165 -339
-165 -362 0 -7 -3 -13 -7 -13 -4 0 -7 -6 -7 -12 -1 -7 -12 -47 -26 -88 -25
-74 -46 -147 -53 -183 -2 -10 -5 -26 -8 -35 -3 -9 -8 -30 -11 -47 -2 -16 -7
-41 -10 -55 -6 -26 -16 -90 -20 -125 -1 -11 -3 -20 -4 -20 -4 0 -13 -129 -14
-202 -1 -40 -6 -73 -10 -73 -5 0 -5 -5 -2 -10 4 -6 8 -72 10 -148 4 -127 6
-156 20 -252 3 -19 8 -53 11 -75 2 -22 7 -47 9 -55 2 -8 7 -31 10 -50 3 -19 8
-43 11 -52 3 -9 7 -25 9 -35 2 -10 13 -49 25 -88 11 -38 22 -77 24 -86 19 -77
90 -248 163 -394 56 -111 204 -360 223 -375 4 -3 26 -32 50 -64 39 -54 112
-142 180 -220 115 -130 301 -298 475 -427 66 -49 125 -94 132 -99 7 -6 17 -10
23 -10 5 0 10 -4 10 -8 0 -5 10 -14 23 -20 12 -6 38 -22 59 -34 171 -107 425
-236 598 -303 52 -21 104 -41 115 -45 68 -28 346 -112 415 -126 14 -3 43 -10
65 -16 22 -5 51 -12 65 -14 14 -3 57 -11 95 -19 39 -9 88 -17 110 -20 22 -2
51 -6 65 -9 14 -3 50 -7 80 -10 30 -3 66 -8 80 -11 85 -18 616 -25 770 -11 41
4 95 9 120 11 198 15 596 97 790 161 41 14 89 28 105 31 17 3 32 8 35 11 3 4
37 18 75 31 39 13 81 29 94 36 26 13 22 15 181 -79 190 -113 644 -306 773
-330 14 -2 35 -9 46 -16 12 -6 21 -9 21 -6 0 3 15 0 33 -5 17 -6 43 -12 57
-15 14 -3 41 -9 60 -14 19 -5 49 -12 65 -14 17 -3 39 -8 50 -10 192 -37 451
-55 680 -47 45 2 48 3 25 13 -166 72 -240 114 -314 177 -64 55 -164 159 -212
221 -60 78 -174 259 -174 277 0 7 -3 13 -8 13 -7 0 -24 33 -43 88 -6 17 -15
32 -20 32 -5 0 -9 5 -9 12 0 7 -21 64 -46 127 -25 63 -48 122 -50 130 -2 9 -9
34 -15 56 l-12 40 129 130 c71 72 146 150 166 175 20 25 53 65 73 90 20 25 42
53 50 62 7 9 19 26 25 38 6 12 18 29 27 38 26 29 143 216 143 230 0 6 3 12 8
12 4 0 25 37 47 83 22 45 44 85 48 88 5 3 8 9 7 13 0 3 9 27 20 53 44 101 130
345 148 426 1 4 2 8 3 10 0 1 2 10 4 21 2 10 8 39 14 65 12 52 20 93 26 136 3
17 7 41 9 55 6 30 17 144 21 218 1 29 5 55 8 58 3 3 2 18 -2 32 -5 15 -5 36
-1 47 4 11 5 24 3 28 -3 4 -6 59 -8 123 -2 63 -7 133 -10 157 -13 96 -37 235
-47 272 -5 22 -12 49 -15 60 -2 11 -5 25 -7 30 -2 6 -6 27 -11 48 -4 20 -11
40 -16 43 -5 3 -7 9 -4 14 3 4 -2 21 -10 36 -8 16 -15 35 -15 41 0 11 -33 103
-60 168 -29 69 -129 270 -165 331 -69 117 -148 234 -157 234 -4 0 -8 6 -8 13
0 13 -13 30 -130 171 -87 105 -264 285 -365 371 -38 32 -78 67 -88 77 -10 10
-21 18 -25 18 -4 0 -19 10 -32 23 -28 24 -49 39 -172 124 -99 68 -95 65 -218
138 -257 153 -687 332 -935 390 -5 1 -17 5 -25 8 -13 5 -66 17 -180 43 -14 3
-83 16 -155 29 -125 23 -159 27 -270 40 -27 3 -70 7 -95 10 -25 3 -108 7 -185
10 -77 4 -145 8 -152 10 -6 2 -13 2 -15 1z"/>
</g>
</svg>
