<?xml version="1.0" encoding="utf-8"?>
<!-- Generator: Adobe Illustrator 28.0.0, SVG Export Plug-In . SVG Version: 6.00 Build 0)  -->
<svg version="1.1" id="logo-28" xmlns="http://www.w3.org/2000/svg" xmlns:xlink="http://www.w3.org/1999/xlink" x="0px" y="0px"
	 viewBox="0 0 47 44" style="enable-background:new 0 0 47 44;" xml:space="preserve">
<style type="text/css">
	.st0{fill:#BA42D8;}
	.st1{fill:#8C79F6;}
	.st2{fill:#5F4ABC;}
</style>
<path class="st0" d="M39.9,34.4c3.8-3.4,6.1-8,6.1-13.1c0-10.5-10.1-19-22.5-19S1,10.8,1,21.3s10.1,19,22.5,19
	c3.5,0,6.9-0.7,9.8-1.9c3.5,2.2,7.8,3.7,12.5,3.4C43.3,41.1,41.2,38.6,39.9,34.4z"/>
<path class="st1" d="M39.6,21.3c0,7.7-7.4,14-16.5,14S6.6,29,6.6,21.3s7.4-14,16.5-14S39.6,13.6,39.6,21.3z"/>
<path class="st2" d="M33.6,21.3c0,5-4.7,9-10.5,9s-10.5-4-10.5-9s4.7-9,10.5-9S33.6,16.3,33.6,21.3z"/>
</svg>
